<svg xmlns="http://www.w3.org/2000/svg" width="128" height="192.232" viewBox="0 0 128 192.232"><path id="Trazado_27" data-name="Trazado 27" d="M114.265,23.079c-4.379-1.812-16.157-4.983-30.048-3.322C66.551,21.871,51.451,30.78,40.579,45.88c-23.4,32.464,6.795,67.193,7.1,67.5l6.946-6.191c-.3-.3-25.518-29.444-6.493-55.869,21.29-29.444,54.661-22.951,62.512-19.63C132.989,41.35,138.123,64,124.835,95.558c-14.647,35.031-45.752,46.356-58.586,49.527-2.718.755-5.436,1.208-8,1.661C87.841,91.179,97.052,62.338,97.5,60.828L88.6,58.111c-.151.453-9.966,31.105-41.373,89.541-5.587-.151-9.815-1.208-11.929-2.869l-5.738,7.248c3.02,2.416,7.4,3.926,12.835,4.53-8.3,15.1-17.818,31.709-28.991,50.131l8,4.832c12.382-20.234,22.8-38.5,31.558-54.661a75.559,75.559,0,0,0,15.7-2.567c14.043-3.624,48.47-16.157,64.777-54.963C155.034,47.239,127.251,28.666,114.265,23.079Z" transform="translate(-13.4 -19.291)" fill="#fff"></path></svg>